<?xml version="1.0" encoding="UTF-8"?><svg xmlns="http://www.w3.org/2000/svg" viewBox="0 0 198.13 655.07"><defs><style>.d{fill:#72b01d;opacity:.2;}</style></defs><g id="a"/><g id="b"><g id="c"><path class="d" d="M145.34,0c24.17,18.63,33.52,46.11,33.89,47.27,1.98,6.03,13.16,40.28-3.94,68.58-12.62,20.9-36.75,32.09-55.97,41-19.44,9.01-28.79,9.36-34.68,19.7-5.79,10.15-3.4,21.4,1.57,43.36,6.59,29.06,13.25,31.62,14.19,50.45,.44,8.72,1.37,27.34-10.25,42.57-11.58,15.2-29.5,18.96-48.08,22.87-17.35,3.64-32.16,3.28-42.07,2.36V0H145.34Z"/><path class="d" d="M44.43,610.13c7.98,11.26,20.64,19.75,55.18,31.53,33.93,11.58,49.96,13.02,59.91,13.33,27.08,.85,33.03-5.97,34.47-7.82,8.52-10.89,1.43-28.73,0-32.32-10.76-27.06-41.15-36.97-48.66-39.42-29.99-9.78-37.56,7.76-88.29,11.82-4.31,.35-14.63,1.06-17.34,7.09-.5,1.11-2.3,5.85,4.73,15.77Z"/></g></g></svg>