<?xml version="1.0" encoding="UTF-8"?><svg xmlns="http://www.w3.org/2000/svg" viewBox="0 0 195.09 101.26"><defs><style>.d{fill:#72b01d;}</style></defs><g id="a"/><g id="b"><g id="c"><path d="M39.67,59.14v-8.51h39.44c-.08,11.96-3.81,21.74-11.21,29.33-7.4,7.59-16.81,11.38-28.23,11.38s-20.89-3.87-28.4-11.62C3.76,71.99,0,62.56,0,51.44S3.74,30.78,11.21,23.03c7.48-7.74,16.96-11.61,28.46-11.61,9.05,0,16.98,2.51,23.81,7.53,6.82,5.02,11.46,11.52,13.92,19.49h-9.54c-2.22-5.37-5.87-9.78-10.93-13.23-5.06-3.45-10.85-5.17-17.36-5.17-8.89,0-16.23,3.03-22.02,9.08-5.79,6.06-8.68,13.46-8.68,22.2s2.93,16.16,8.8,22.25c5.87,6.09,13.24,9.18,22.14,9.26,7.59,.08,14.07-2.07,19.44-6.44,5.37-4.37,8.78-10.12,10.23-17.25h-29.79Z"/><path class="d" d="M177.57,0H111.35c-9.67,0-17.52,7.85-17.52,17.52V83.74c0,9.68,7.85,17.52,17.52,17.52h66.22c9.68,0,17.52-7.84,17.52-17.52V17.52c0-9.67-7.84-17.52-17.52-17.52Zm1.03,89.15h-13.69V56.15h-40.25v33h-13.8V12.1h13.8v30.71h40.25V12.1h13.69V89.15Z"/></g></g></svg>