<?xml version="1.0" encoding="UTF-8"?><svg xmlns="http://www.w3.org/2000/svg" viewBox="0 0 623.24 128.76"><defs><style>.d{fill:#72b01d;}</style></defs><g id="a"/><g id="b"><g id="c"><g><g><path d="M39.67,72.14v-8.51h39.44c-.08,11.96-3.81,21.74-11.21,29.33-7.4,7.59-16.81,11.38-28.23,11.38s-20.89-3.87-28.4-11.62C3.76,84.98,0,75.55,0,64.43s3.74-20.66,11.21-28.4c7.48-7.74,16.96-11.61,28.46-11.61,9.05,0,16.98,2.51,23.81,7.53,6.82,5.02,11.46,11.52,13.92,19.49h-9.54c-2.22-5.37-5.87-9.78-10.93-13.23-5.06-3.45-10.85-5.17-17.36-5.17-8.89,0-16.23,3.03-22.02,9.08-5.79,6.06-8.68,13.46-8.68,22.2s2.93,16.16,8.8,22.25c5.87,6.09,13.24,9.18,22.14,9.26,7.59,.08,14.07-2.07,19.44-6.44,5.37-4.37,8.78-10.12,10.23-17.25h-29.79Z"/><path d="M93.84,89.27V20.16h8.62V88.35c0,2,.56,3.53,1.67,4.6,1.11,1.07,2.66,1.61,4.66,1.61h9.54v8.39h-10.58c-4.52,0-7.97-1.19-10.35-3.57-2.38-2.38-3.56-5.75-3.56-10.12Z"/><path d="M229.54,44.77c8.36-.08,15.28,2.72,20.76,8.4,5.48,5.67,8.22,12.84,8.22,21.5s-2.72,15.72-8.17,21.39c-5.44,5.67-12.38,8.47-20.82,8.4-4.83-.08-9.16-1.15-13-3.22-3.83-2.07-6.9-4.87-9.2-8.4h-.23v10.12h-8.62V20.16h8.62V56.84h.23c2.3-3.68,5.37-6.61,9.2-8.8,3.83-2.19,8.17-3.28,13-3.28Zm-1.15,51.4c6.36,0,11.54-2.07,15.52-6.21,3.99-4.14,5.98-9.24,5.98-15.29s-2-11.17-5.98-15.35c-3.99-4.18-9.16-6.27-15.52-6.27s-11.41,2.09-15.35,6.27c-3.95,4.18-5.92,9.3-5.92,15.35s1.97,11.16,5.92,15.29c3.95,4.14,9.06,6.21,15.35,6.21Z"/><path d="M320.62,56.38v-10.12h8.51v56.69h-8.51v-10.58h-.34c-4.98,7.97-12.38,12-22.2,12.08-8.36,.08-15.28-2.72-20.76-8.4-5.48-5.67-8.22-12.84-8.22-21.5s2.72-15.81,8.17-21.45c5.44-5.63,12.42-8.41,20.93-8.34,4.83,.08,9.16,1.15,13,3.22,3.83,2.07,6.86,4.87,9.08,8.4h.34Zm-21.27,39.79c6.21,0,11.31-2.11,15.29-6.33,3.99-4.21,5.98-9.31,5.98-15.29s-1.97-11.15-5.92-15.29c-3.95-4.14-9.07-6.21-15.35-6.21s-11.65,2.07-15.64,6.21c-3.99,4.14-5.98,9.24-5.98,15.29s1.99,11.17,5.98,15.35c3.99,4.18,9.2,6.27,15.64,6.27Z"/><path d="M346.95,89.27V20.16h8.62V88.35c0,2,.56,3.53,1.67,4.6,1.11,1.07,2.66,1.61,4.66,1.61h9.54v8.39h-10.58c-4.52,0-7.97-1.19-10.35-3.57-2.38-2.38-3.57-5.75-3.57-10.12Z"/></g><path d="M183.76,65.75c-2.17,1.46-4.81,3.02-7.81,4.63,.23,1.33,.34,2.72,.34,4.17,0,2.19-.27,4.26-.81,6.22-.92,3.38-2.65,6.41-5.17,9.08-3.99,4.22-9.13,6.32-15.41,6.32-4.28,0-8.03-.92-11.24-2.77-1.62-.93-3.11-2.09-4.46-3.49-1.14-1.19-2.12-2.45-2.93-3.79-3.17,.88-6.11,1.58-8.75,2.1,1.36,2.72,3.19,5.24,5.47,7.55,.13,.13,.27,.27,.4,.38,5.65,5.54,12.82,8.3,21.51,8.3s15.92-2.89,21.56-8.68c5.39-5.53,8.19-12.23,8.43-20.11,.01-.36,.02-.74,.02-1.11,0-3.12-.38-6.05-1.15-8.8Z"/><path d="M183.76,65.75c-2.17,1.46-4.81,3.02-7.81,4.63-.73-4.26-2.61-7.97-5.64-11.12l-.08-.08c-.51-.52-1.03-1.01-1.58-1.47-3.72-3.11-8.31-4.66-13.75-4.66-6.44,0-11.67,2.07-15.7,6.21-3.18,3.28-5.11,7.16-5.77,11.64-.11,.7-.19,1.42-.23,2.16-.03,.49-.04,.98-.04,1.49,0,4.34,1.04,8.2,3.11,11.57-3.17,.88-6.11,1.58-8.75,2.1-1.63-3.23-2.62-6.74-2.96-10.55-.06-.68-.1-1.37-.12-2.07-.01-.34-.02-.7-.02-1.05,0-8.43,2.84-15.5,8.51-21.21,5.68-5.71,13-8.57,21.97-8.57s16.02,2.86,21.62,8.57c.67,.68,1.29,1.38,1.88,2.1,.45,.55,.88,1.12,1.28,1.7,1.85,2.63,3.21,5.5,4.08,8.61Z"/><path class="d" d="M603.72,0h-200.62c-10.78,0-19.51,8.73-19.51,19.51V109.24c0,10.78,8.73,19.52,19.51,19.52h200.62c10.78,0,19.52-8.74,19.52-19.52V19.51c0-10.78-8.74-19.51-19.52-19.51Zm-135.13,102.15h-13.68v-33h-40.25v33h-13.8V25.1h13.8v30.71h40.25V25.1h13.68V102.15Zm67.51-25.99c0,8.36-2.49,15.05-7.48,20.07-4.98,5.02-11.65,7.53-20.01,7.53s-14.89-2.51-19.83-7.53c-4.95-5.02-7.42-11.71-7.42-20.07v-31.05h13.22v30.94c0,4.29,1.27,7.88,3.8,10.75,2.53,2.88,5.94,4.31,10.23,4.31s7.84-1.43,10.41-4.31c2.57-2.87,3.85-6.46,3.85-10.75v-30.94h13.23v31.05Zm65.55,19.21c-5.29,5.67-12.04,8.47-20.24,8.39-8.36,0-14.8-3.14-19.32-9.43h-.69v7.82h-13.11V19.35h13.11V53.28h.58c2.07-2.92,4.79-5.27,8.16-7.07,3.37-1.81,7.13-2.74,11.27-2.82,8.13-.08,14.85,2.7,20.18,8.34,5.33,5.63,8,12.9,8,21.79s-2.65,16.17-7.94,21.85Zm-22.88-39.33c-5.06,0-9.2,1.7-12.42,5.12-3.22,3.41-4.83,7.57-4.83,12.47s1.61,9.17,4.83,12.54c3.22,3.37,7.36,5.06,12.42,5.06s9.33-1.69,12.59-5.06,4.89-7.55,4.89-12.54-1.63-9.16-4.89-12.53-7.46-5.06-12.59-5.06Z"/><path class="d" d="M202.43,57.41c-1.56-4.03-10.92-4.52-24.03-1.97,.45,.55,.88,1.12,1.28,1.7,6.14-.98,10.17-.73,10.83,.99,.64,1.65-1.93,4.39-6.75,7.62-2.17,1.46-4.81,3.02-7.81,4.63-5.84,3.13-13.08,6.43-21.06,9.52-6.62,2.56-12.98,4.66-18.62,6.22-3.17,.88-6.11,1.58-8.75,2.1-7.7,1.52-12.86,1.48-13.62-.49-.8-2.05,3.38-5.79,10.66-10.06-.06-.68-.1-1.37-.12-2.07-13.48,7.64-21.57,15.19-19.86,19.61,1.74,4.5,13.22,4.58,28.81,.94,3.26-.76,6.7-1.68,10.27-2.75,4.66-1.41,9.53-3.09,14.51-5.01,6.21-2.4,12.04-4.98,17.31-7.62,3.39-1.69,6.54-3.41,9.41-5.11,12.08-7.16,19.15-14.1,17.54-18.25Z"/><circle class="d" cx="144.86" cy="65.75" r="6.87"/></g></g></g></svg>