<?xml version="1.0" encoding="utf-8"?>
<!-- Generator: Adobe Illustrator 26.1.0, SVG Export Plug-In . SVG Version: 6.00 Build 0)  -->
<svg version="1.1" id="Слой_1" xmlns="http://www.w3.org/2000/svg" xmlns:xlink="http://www.w3.org/1999/xlink" x="0px" y="0px"
	 viewBox="0 0 2795 2800" style="enable-background:new 0 0 2795 2800;" xml:space="preserve">
<style type="text/css">
	.st0{opacity:0.25;fill:#72B01D;enable-background:new    ;}
	.st1{fill:#72B01D;}
	.st2{clip-path:url(#SVGID_00000176737274972309354590000017676348619508937630_);}
	.st3{fill:#FFFFFF;}
	.st4{fill:url(#SVGID_00000027595379002292364420000009304459392511538083_);}
	.st5{fill:url(#SVGID_00000123429340306260266540000012592247043202735789_);}
	.st6{fill:#454955;}
	.st7{fill:url(#SVGID_00000150087578916542936400000004987778846299920284_);}
	.st8{fill:url(#SVGID_00000085966938844883427030000000439849760339874693_);}
	.st9{fill:url(#SVGID_00000095334234686238095490000011634689318936600221_);}
	.st10{clip-path:url(#SVGID_00000173881294482787872390000004371541484647918220_);}
	.st11{fill:url(#SVGID_00000177450589705689567020000002222554600134665876_);}
	.st12{fill:url(#SVGID_00000071556314826346618210000004238353206407230889_);}
	.st13{fill:url(#SVGID_00000119799590565877533640000012344459691819174530_);}
	.st14{fill:url(#SVGID_00000007413781918860707070000004932621921801078415_);}
	.st15{fill:#95BA5A;}
	.st16{clip-path:url(#SVGID_00000002368325933660947920000006353009952856586934_);}
	.st17{fill:url(#SVGID_00000031905677070155614480000005018128344560161963_);}
	.st18{fill:url(#SVGID_00000158735122365926604200000003514343293324301704_);}
	.st19{fill:url(#SVGID_00000124845535870166046200000007994282479668832133_);}
	.st20{fill:url(#SVGID_00000002365487379175031360000003211817926597572259_);}
	.st21{fill:url(#SVGID_00000164483744306822698010000004004775021627376294_);}
	.st22{fill:url(#SVGID_00000085229904850515320410000007565941307543888293_);}
	.st23{fill:url(#SVGID_00000083056287861290886660000017421068784059115930_);}
	.st24{fill:url(#SVGID_00000127026253393099597620000010247189196607518610_);}
	.st25{fill:url(#SVGID_00000016769761577664734140000016674248111902474892_);}
	.st26{fill:url(#SVGID_00000158721725091195972210000005852283584086082453_);}
	.st27{fill:url(#SVGID_00000129904190705089601750000017552144850540937874_);}
	.st28{fill:#407D20;}
</style>
<g id="a">
</g>
<g id="b">
	<g id="c">
		<g>
			<path class="st0" d="M2676.1,1891.6c-271,633.7-992.9,988.7-1618.9,892.9c-101.9-15.6-381.1-62-628.4-281
				C-47.1,2082-148.9,1247.3,235,659.1C514.5,231,1015.4-11.7,1491.4,0.4C1594,3,1986.9,19.2,2332.2,301.9
				c50.7,41.5,162.6,140.2,263.4,296.8C2832.4,966.4,2852.8,1478.6,2676.1,1891.6L2676.1,1891.6z"/>
			<g>
				<circle class="st1" cx="2290.5" cy="786.7" r="443.3"/>
				<g>
					<defs>
						<circle id="SVGID_1_" cx="2290.2" cy="787" r="422.1"/>
					</defs>
					<clipPath id="SVGID_00000014597390011055621230000002154819929303779980_">
						<use xlink:href="#SVGID_1_"  style="overflow:visible;"/>
					</clipPath>
					<g style="clip-path:url(#SVGID_00000014597390011055621230000002154819929303779980_);">
						<path class="st3" d="M2819.1,1318.3l-1022,33.4c-6.2,0.2-11.4-4.7-11.6-10.8l-36.8-1128.1c-0.2-6.2,4.7-11.4,10.8-11.6
							l1022-33.4c6.2-0.2,11.4,4.7,11.6,10.8l36.8,1128.1C2830.1,1312.9,2825.2,1318.1,2819.1,1318.3L2819.1,1318.3z"/>
						<g>
							<path class="st1" d="M2073.1,838.9c0,0,255.7-49,460.4-1.5l-6.7,210.1c0,0-44.6,292.6-81,422.4c0,0-154.7,32.1-230.4-6
								c0,0-72.8-363.2-108.4-416.2C2107,1047.7,2068.5,906.8,2073.1,838.9L2073.1,838.9z"/>
							
								<linearGradient id="SVGID_00000016066797743688751650000008269848332560392890_" gradientUnits="userSpaceOnUse" x1="2335.2744" y1="1781.651" x2="2247.2344" y2="2188.001" gradientTransform="matrix(1 0 0 -1 0 2800)">
								<stop  offset="0" style="stop-color:#FEBBBA"/>
								<stop  offset="1" style="stop-color:#FF928E"/>
							</linearGradient>
							<path style="fill:url(#SVGID_00000016066797743688751650000008269848332560392890_);" d="M2245.6,648.3l-19.9,174
								c0,0,72.6,30.5,121.6-5.4L2332.4,695L2245.6,648.3L2245.6,648.3z"/>
							<g>
								
									<linearGradient id="SVGID_00000114779010659890275550000011435839689548604843_" gradientUnits="userSpaceOnUse" x1="15743.7588" y1="5389.584" x2="15956.9189" y2="5441.4644" gradientTransform="matrix(0.8595 -0.5111 -0.5111 -0.8595 1338.2799 3699.1575)">
									<stop  offset="0" style="stop-color:#FEBBBA"/>
									<stop  offset="1" style="stop-color:#FF928E"/>
								</linearGradient>
								<path style="fill:url(#SVGID_00000114779010659890275550000011435839689548604843_);" d="M2352.1,531.9
									c0.9,1.4,19.1,88.2,30.4,142c4.6,22.2-11.1,43.5-33.7,45.6l-20.7,1.9c-38,3.5-72.4-22.5-79.4-60l-18.2-97.4
									C2230.6,563.9,2331.4,497.1,2352.1,531.9L2352.1,531.9z"/>
								<path class="st6" d="M2208.2,564.9c-8.3-9.6-15.7-25.4,0.6-42.7c16.6-17.6,36.1-14,48.7-8.7c5.5,2.3,12.2,1,16-3.7
									c1.7-2.1,4.2-3.6,8-3.3c7.2,0.6,13.4-4.4,14.1-11.6c1.1-12.3,7.1-27,28.7-31.9c39.6-9,60.7,30.2,60.9,58.2
									c0.2,28-43.2,35.3-68.2,31.5c-18.3-2.8-33.5,13.7-40.3,22.6c-2.5,3.2-3.3,7.4-2.2,11.4l7.2,26.8c-4.1,8.5-8.1,17.3-14,24.7
									c-4.2,5.3-9,8.3-14.1,9.7c-7.9-13.6-28.7-15.2-38.4-15.2c-3.7,0-7.2-1.5-9.7-4.2c-7.6-8.1-19.6-26.4,1.7-45.4
									C2212.5,578.5,2212.8,570.3,2208.2,564.9L2208.2,564.9z"/>
								
									<linearGradient id="SVGID_00000137105814782241923480000007612773702157968540_" gradientUnits="userSpaceOnUse" x1="15736.2031" y1="5420.438" x2="15949.3633" y2="5472.3179" gradientTransform="matrix(0.8595 -0.5111 -0.5111 -0.8595 1338.2799 3699.1575)">
									<stop  offset="0" style="stop-color:#FEBBBA"/>
									<stop  offset="1" style="stop-color:#FF928E"/>
								</linearGradient>
								<path style="fill:url(#SVGID_00000137105814782241923480000007612773702157968540_);" d="M2261.8,676.8
									c0,0-2.4-48.8-22.4-52.8c-19.9-3.9-40.8,11-22.9,39.7C2238.7,699.4,2261.8,676.7,2261.8,676.8L2261.8,676.8z"/>
							</g>
							<path class="st1" d="M2073.1,838.9c0,0-384.9,445.9,90.6,596.2l-1.1-33.8c0,0-180.7-143.1-52.1-350.4
								C2110.4,1051,2087.2,858.8,2073.1,838.9z"/>
							
								<linearGradient id="SVGID_00000100358448431436098930000018183894363372861360_" gradientUnits="userSpaceOnUse" x1="2257.0957" y1="1363.9978" x2="2040.5555" y2="1179.0377" gradientTransform="matrix(0.9995 -3.263186e-02 -3.263186e-02 -0.9995 61.536 2799.3018)">
								<stop  offset="0" style="stop-color:#FEBBBA"/>
								<stop  offset="1" style="stop-color:#FF928E"/>
							</linearGradient>
							<path style="fill:url(#SVGID_00000100358448431436098930000018183894363372861360_);" d="M2166,1404.6c0,0,59.6-42.6,87-29.9
								c27.5,12.6,28.2,32.9,28.2,32.9s-12.6,27.5-33.1,21.4c-20.5-6.1-67.4,9-87.9,2.9C2160.1,1431.9,2152.5,1405.1,2166,1404.6
								L2166,1404.6z"/>
							<path class="st1" d="M2533.4,837.4c0,0,429.6,405.7-35,586.8l-1.1-33.8c0,0,171-154.5,29.1-353
								C2526.4,1037.4,2507.4,872.1,2533.4,837.4L2533.4,837.4z"/>
							
								<linearGradient id="SVGID_00000110453961044564973270000001076417660977846432_" gradientUnits="userSpaceOnUse" x1="2387.2507" y1="1354.0565" x2="2509.0508" y2="1232.2567" gradientTransform="matrix(0.9995 -3.263186e-02 -3.263186e-02 -0.9995 61.536 2799.3018)">
								<stop  offset="0" style="stop-color:#FEBBBA"/>
								<stop  offset="1" style="stop-color:#FF928E"/>
							</linearGradient>
							<path style="fill:url(#SVGID_00000110453961044564973270000001076417660977846432_);" d="M2494,1393.9
								c0,0-62.2-38.6-88.8-24.2c-26.6,14.4-25.9,34.7-25.9,34.7s14.4,26.6,34.5,19.2c20.1-7.4,67.9,4.6,87.9-2.9
								C2501.6,1420.7,2507.5,1393.5,2494,1393.9L2494,1393.9z"/>
						</g>
					</g>
				</g>
			</g>
			<g>
				<circle class="st1" cx="1312.8" cy="546.3" r="443.3"/>
				<g>
					<defs>
						<circle id="SVGID_00000134966186993469716960000007084842015772184995_" cx="1312.5" cy="546.7" r="422.1"/>
					</defs>
					<clipPath id="SVGID_00000008857201911653984860000012384790700349010087_">
						<use xlink:href="#SVGID_00000134966186993469716960000007084842015772184995_"  style="overflow:visible;"/>
					</clipPath>
					<g style="clip-path:url(#SVGID_00000008857201911653984860000012384790700349010087_);">
						<path class="st3" d="M1841.4,1077.9l-1022,33.4c-6.2,0.2-11.4-4.7-11.6-10.8L771-27.6c-0.2-6.2,4.7-11.4,10.8-11.6l1022-33.4
							c6.2-0.2,11.4,4.7,11.6,10.8l36.8,1128.1C1852.4,1072.5,1847.5,1077.7,1841.4,1077.9z"/>
						<g>
							<path class="st1" d="M1294.3,356.5c0,0,8.2,15-40.8,40.7c-27.3,14.3-80.7,36-85.7,93.8c-2.6,29.9-23.8,54.4-53.2,60
								C1041.2,565,929,607.3,915.4,736c-10.4,98.2,40.8,133.5,93.5,144.5c38.7,8,65.6,44.5,59.2,83.5c-6.1,37.5,6.5,80,72.2,111.7
								c147.1,71,282.1-190.8,282.1-190.8l13.6-449.1L1294.3,356.5L1294.3,356.5z"/>
							<path class="st6" d="M1328.9,999.6c39.1-197-81.6-303.3-81.6-303.3c57.2-59,154.4-94.4,190.4-106.1
								c8.8-2.9,18.4-1.2,25.8,4.3c32.1,24.1,117.2,94.3,107,154.3c-7.4,43.3-80.9,260.6-80.9,260.6S1415.8,1047.6,1328.9,999.6
								L1328.9,999.6z"/>
							
								<linearGradient id="SVGID_00000140716683996605636970000013875402315777993660_" gradientUnits="userSpaceOnUse" x1="-6892.6792" y1="1901.8314" x2="-6864.5288" y2="2107.7615" gradientTransform="matrix(-0.9994 3.577167e-02 -3.577167e-02 -0.9994 -5392.9111 2952.7415)">
								<stop  offset="0" style="stop-color:#FEBBBA"/>
								<stop  offset="1" style="stop-color:#FF928E"/>
							</linearGradient>
							<path style="fill:url(#SVGID_00000140716683996605636970000013875402315777993660_);" d="M1363.2,459.8l-31.5,169.7
								c-3.1,15,10.4,12,25.3,8.7c24.4-5.5,55.7-16.2,65.6-35.7c1-2,1.5-4.2,1.7-6.4l11.9-117.3c0.9-9.3-4.4-18.1-13.1-21.6
								l-31.6-12.7C1379.4,439.6,1365.8,446.9,1363.2,459.8L1363.2,459.8z"/>
							<g>
								
									<linearGradient id="SVGID_00000128452900486127029900000010603180243097700017_" gradientUnits="userSpaceOnUse" x1="-6618.0708" y1="3409.2258" x2="-6372.4707" y2="3846.3259" gradientTransform="matrix(-0.9872 -0.1592 0.1592 -0.9872 -5607.7666 2868.6221)">
									<stop  offset="0" style="stop-color:#FEBBBA"/>
									<stop  offset="1" style="stop-color:#FF928E"/>
								</linearGradient>
								<path style="fill:url(#SVGID_00000128452900486127029900000010603180243097700017_);" d="M1429.5,303.7
									c0,0,40.9,25.6,60.5,93.8s-7.4,93.9-36,93.4c-28.6-0.5-70.3-7.9-108-55.9S1376.1,272.6,1429.5,303.7L1429.5,303.7z"/>
								<path class="st1" d="M1381.2,405.9c0,0-18.1-98,64.2-85.9l17.2,16.6c0,0,38.4-46.5-7.1-79.1
									c-45.6-32.5-106.8-21.6-138.6,41.7c-31.8,63.3-42.6,107.4-12.7,144.9s50.2,3.7,50.2,3.7s-14.3-32.9-3.9-47.6
									c10.3-14.7,25.2,7.4,25.2,7.4L1381.2,405.9L1381.2,405.9z"/>
								
									<linearGradient id="SVGID_00000138568986316675620190000012389545868033153193_" gradientUnits="userSpaceOnUse" x1="-6565.7944" y1="3379.8479" x2="-6320.1948" y2="3816.938" gradientTransform="matrix(-0.9872 -0.1592 0.1592 -0.9872 -5607.7666 2868.6221)">
									<stop  offset="0" style="stop-color:#FEBBBA"/>
									<stop  offset="1" style="stop-color:#FF928E"/>
								</linearGradient>
								<path style="fill:url(#SVGID_00000138568986316675620190000012389545868033153193_);" d="M1370.3,414.7c0,0-9-50.5-34.4-35
									c-25.4,15.4,11,47,25.6,57.7L1370.3,414.7z"/>
							</g>
							
								<linearGradient id="SVGID_00000062184104413559846470000016334332432599871135_" gradientUnits="userSpaceOnUse" x1="1158.604" y1="862.6288" x2="1353.12" y2="862.6288">
								<stop  offset="0" style="stop-color:#FEBBBA"/>
								<stop  offset="1" style="stop-color:#FF928E"/>
							</linearGradient>
							<path style="fill:url(#SVGID_00000062184104413559846470000016334332432599871135_);" d="M1246.9,699.1
								c0,0-75,130.1-87.5,226.2s140.1,130.4,193.8,72.8l-9.4-39.5c0,0-86.9,19-96.6-28.4c-9.7-47.5,66.5-145.8,66.5-145.8
								S1287.2,713.6,1246.9,699.1L1246.9,699.1z"/>
							<path class="st15" d="M1024.6,822.7c-2.3,0-4.8-0.9-6.9-2.2c-34.6-20.8-54.3-65.7-47.8-109c3.9-26,15.9-48.7,33.8-64
								c12.7-10.8,28-17.7,42.6-23.8c24.6-10.3,49.9-19.5,75.3-27.4c2.1-0.6,4.2-1.3,6.2-1.9c14.9-4.5,30.2-9.2,44-16.7
								c17.6-9.6,30.2-23.2,35.5-38.1c3.3-9.3,4-19.5,4.6-29.4c0.8-12.1,1.6-24.7,7.3-35.7c0.2-0.4,0.8-0.6,1.2-0.4
								c0.4,0.2,0.6,0.8,0.4,1.2c-5.5,10.6-6.3,23-7.1,35c-0.7,10-1.3,20.3-4.7,29.8c-5.4,15.3-18.3,29.2-36.3,39
								c-13.9,7.6-29.4,12.3-44.3,16.9c-2.1,0.6-4.2,1.3-6.2,1.9c-25.4,7.8-50.7,17-75.2,27.3c-14.4,6.1-29.6,12.9-42.1,23.5
								c-17.6,15-29.4,37.3-33.2,62.9c-6.4,42.7,13,86.7,47,107.2c2.5,1.5,7.1,3.2,8.9,0.5c0.3-0.4,0.8-0.5,1.2-0.3
								c0.4,0.3,0.5,0.8,0.2,1.2C1027.9,822,1026.4,822.7,1024.6,822.7L1024.6,822.7z"/>
							<path class="st15" d="M1014.6,782.6c-0.3,0-0.6-0.1-0.7-0.4c-13.7-19-21.3-39.3-21.8-58.5c-0.6-22.6,9.2-43.9,25.4-55.7
								c0.4-0.3,1-0.2,1.2,0.2c0.3,0.4,0.2,1-0.2,1.2c-15.8,11.5-25.2,32.2-24.7,54.2c0.5,18.9,7.9,38.8,21.4,57.5
								c0.3,0.4,0.2,1-0.2,1.2C1014.9,782.5,1014.8,782.6,1014.6,782.6L1014.6,782.6z"/>
						</g>
					</g>
				</g>
			</g>
			<g>
				<circle class="st1" cx="2351.8" cy="1862.3" r="443.3"/>
				<g>
					<defs>
						<circle id="SVGID_00000108271773733845099280000007736652884553919412_" cx="2351.5" cy="1862.6" r="422.1"/>
					</defs>
					<clipPath id="SVGID_00000150070786217923275290000018244038677480890755_">
						<use xlink:href="#SVGID_00000108271773733845099280000007736652884553919412_"  style="overflow:visible;"/>
					</clipPath>
					<g style="clip-path:url(#SVGID_00000150070786217923275290000018244038677480890755_);">
						<path class="st3" d="M2880.3,2393.9l-1022,33.4c-6.2,0.2-11.4-4.7-11.6-10.8L1810,1288.3c-0.2-6.2,4.7-11.4,10.8-11.6
							l1022-33.4c6.2-0.2,11.4,4.7,11.6,10.8l36.8,1128.1C2891.4,2388.5,2886.5,2393.7,2880.3,2393.9L2880.3,2393.9z"/>
						<g>
							<path class="st6" d="M2277.2,1640.8c-0.8,1.6-53,40-53,40s11.5,82.5,58.3,115c51.5,35.8,124.1-29.5,124.1-29.5
								s57.8,13.8,88.6-106.7c7.1-27.6-33.7-30-82.8-24.9C2349.1,1641.4,2277.2,1640.8,2277.2,1640.8L2277.2,1640.8z"/>
							<path class="st1" d="M2179.7,1922.1c20.4-14,43-24.6,66.9-31.1c9-2.4,57.5,11.7,87.5,11c41.2-0.9,83.1-19.7,117.1-11.2
								c33.7,8.4,61.3,19.4,77.3,30.7c47.7,33.9,75.7,97.2,92.8,159.9c-32.3,33.2-73,47.9-73,47.9l-7.5,304.6l-180.1,92.2
								L2155,2422.8l7.4-297.7c0,0-65.3-30.4-70.1-41.5S2122.1,1961.7,2179.7,1922.1L2179.7,1922.1z"/>
							
								<linearGradient id="SVGID_00000032633166720024840780000000785757350685686191_" gradientUnits="userSpaceOnUse" x1="2050.6626" y1="782.8712" x2="2392.9626" y2="-43.9789" gradientTransform="matrix(1 0 0 -1 0 2800)">
								<stop  offset="0" style="stop-color:#FEBBBA"/>
								<stop  offset="1" style="stop-color:#FF928E"/>
							</linearGradient>
							<path style="fill:url(#SVGID_00000032633166720024840780000000785757350685686191_);" d="M2095.4,2082.3
								c0,0-87.5,242.6,112,342.2c41.4-5.5,25.5-74.3,25.5-74.3s-86.7-19.2-60.6-221.5C2148.3,2109,2095.4,2082.3,2095.4,2082.3z"/>
							
								<linearGradient id="SVGID_00000178922659996224658410000016416565785726599572_" gradientUnits="userSpaceOnUse" x1="-6309.5049" y1="784.652" x2="-5967.2051" y2="-42.198" gradientTransform="matrix(-1 0 0 -1 -3652.0298 2800)">
								<stop  offset="0" style="stop-color:#FEBBBA"/>
								<stop  offset="1" style="stop-color:#FF928E"/>
							</linearGradient>
							<path style="fill:url(#SVGID_00000178922659996224658410000016416565785726599572_);" d="M2617.1,2082.3
								c0,0,60.2,253.2-112,342.2c-41.4-5.5-25.5-74.3-25.5-74.3s69.9-34.4,60.6-221.5C2564.2,2109,2617.1,2082.3,2617.1,2082.3z"/>
							
								<linearGradient id="SVGID_00000093156776564574010340000003124572460710898104_" gradientUnits="userSpaceOnUse" x1="2351.1536" y1="714.6002" x2="2346.6038" y2="1110.87" gradientTransform="matrix(1 0 0 -1 0 2800)">
								<stop  offset="0" style="stop-color:#FEBBBA"/>
								<stop  offset="1" style="stop-color:#FF928E"/>
							</linearGradient>
							<path style="fill:url(#SVGID_00000093156776564574010340000003124572460710898104_);" d="M2246.6,1891
								c0,0,18.2,78.9,106.6,77.2c90-1.6,98-77.5,98-77.5l-58.8-12.6l-4.9-65.5l-88.4,6.6l-1.6,62.2L2246.6,1891L2246.6,1891z"/>
							
								<linearGradient id="SVGID_00000183927303996733732130000018088398761169581493_" gradientUnits="userSpaceOnUse" x1="2337.8496" y1="1618.3179" x2="2352.0398" y2="1963.1479" gradientTransform="matrix(0.987 0.1607 0.1607 -0.987 -229.5971 3086.7605)">
								<stop  offset="0" style="stop-color:#FEBBBA"/>
								<stop  offset="1" style="stop-color:#FF928E"/>
							</linearGradient>
							<path style="fill:url(#SVGID_00000183927303996733732130000018088398761169581493_);" d="M2311.5,1627
								c0,0-101.4,196.3,18.9,244c84.8,33.6,138-130.4,122.1-174.8c-24.5-68.7-40.7-60.5-40.7-60.5L2311.5,1627L2311.5,1627z"/>
							<path class="st6" d="M2476.9,1609.2c50.1,13.8,7.3,122.4-68.1,96.7c-75.4-25.7-105-25.3-116.8-4.6
								c-11.8,20.7-14.3,94.2-39.8,57.9c-27.9-39.8-43.5-119.8-9.3-145.6c30.6-23,37.8-58.8,74.5-57.5c48.8,1.6,86.4-20,108.5-4.4
								C2451.2,1569.6,2440,1599.1,2476.9,1609.2L2476.9,1609.2z"/>
							
								<linearGradient id="SVGID_00000170265824162201656580000001778821153874641552_" gradientUnits="userSpaceOnUse" x1="2091.5518" y1="413.4057" x2="2113.7917" y2="953.7756" gradientTransform="matrix(0.9911 -0.1329 -0.1329 -0.9911 273.8969 2598.1113)">
								<stop  offset="0" style="stop-color:#FEBBBA"/>
								<stop  offset="1" style="stop-color:#FF928E"/>
							</linearGradient>
							<path style="fill:url(#SVGID_00000170265824162201656580000001778821153874641552_);" d="M2287.4,1718.1
								c0,0-21.6-23.3-25.1,4.8s7.6,64.1,20.7,44.3S2287.4,1718.1,2287.4,1718.1L2287.4,1718.1z"/>
						</g>
					</g>
				</g>
			</g>
			<g>
				
					<linearGradient id="SVGID_00000085939212397377313570000005755313077421996170_" gradientUnits="userSpaceOnUse" x1="1965.7438" y1="1577.7372" x2="1347.1838" y2="773.0071" gradientTransform="matrix(1 0 0 -1 0 2800)">
					<stop  offset="0" style="stop-color:#FEBBBA"/>
					<stop  offset="1" style="stop-color:#FF928E"/>
				</linearGradient>
				<path style="fill:url(#SVGID_00000085939212397377313570000005755313077421996170_);" d="M2294.6,985.3c0,0-193.4,42.7-311.1,97
					c-23.4,10.8-42,29.7-52.6,52.9c-35.2,77.1-140.5,270.4-344.6,362.6c29.4,39,76.7,120.2,97.4,256.6
					c122.6-91.3,228.5-243.7,279.3-493.7c0,0,38.7,21,87-2.4c25.5-12.4,55-30,77.1-43.8c22-13.8,38.4-35.2,44.8-60.2
					c8.4-33,3.5-62,3.5-93.2l99.4-30.8C2274.7,1030.4,2304.6,1019.1,2294.6,985.3L2294.6,985.3z"/>
				<path class="st1" d="M250.7,2539.3c28.5-70.7,61.4-127.6,89.5-169.3c-59.7-100.7-77.4-238.3,28.6-417.4
					c77.3,208.6,113.5,513,121.1,647.8c1.4,25.3-6.4,64.5-13.4,93.5c-5.1,21,8.3,42,29.5,46.1c159.1,30.8,312.5,45.1,452.7,21.1
					c20.7-3.5,37.2-19.2,41.8-39.6c91.7-404.7,91.1-683.3,67.1-861.6c94.9,21.2,385.3,66.5,616.2-105.3
					c-20.6-136.4-68-217.6-97.4-256.6c-126.8,57.3-291.8,75.6-501.9,2.8c-19.4-6.7-39.6-10.6-60.1-11.8
					c-111.8-6.6-480.4-18.5-785.4,82.2c-64.2,21.2-116.2,68.7-143,130.1C13.5,1890.4-120.1,2321.6,250.7,2539.3L250.7,2539.3z"/>
				<path class="st15" d="M1067.9,1871.3c-4.2,0-7.8-3.1-8.4-7.3c-23.8-180.1-72.4-258.7-72.9-259.4c-2.5-3.9-1.3-9.2,2.6-11.7
					c3.9-2.5,9.2-1.3,11.7,2.6c2.1,3.3,51,81.9,75.4,266.3c0.6,4.6-2.7,8.9-7.3,9.5C1068.6,1871.2,1068.2,1871.3,1067.9,1871.3
					L1067.9,1871.3z"/>
				
					<linearGradient id="SVGID_00000170996143606771991360000010335512427305922483_" gradientUnits="userSpaceOnUse" x1="586.9926" y1="1057.6295" x2="654.6625" y2="1412.8995" gradientTransform="matrix(1 0 0 -1 0 2800)">
					<stop  offset="0" style="stop-color:#FEBBBA"/>
					<stop  offset="1" style="stop-color:#FF928E"/>
				</linearGradient>
				<path style="fill:url(#SVGID_00000170996143606771991360000010335512427305922483_);" d="M552.8,1239.6
					c0,0-21.1,223.3-39.7,289.3c-2.8,10,1.5,20.6,10.6,25.8c31.6,18,107.2,47.4,210.8-3.3c16.8-8.2,26.8-25.7,26.1-44.2l-9.1-215.8
					L552.8,1239.6z"/>
				<g>
					
						<linearGradient id="SVGID_00000165927828640950881680000001028638386947547274_" gradientUnits="userSpaceOnUse" x1="770.0953" y1="1709.446" x2="383.9853" y2="1414.0161" gradientTransform="matrix(1 0 0 -1 0 2800)">
						<stop  offset="0" style="stop-color:#FEBBBA"/>
						<stop  offset="1" style="stop-color:#FF928E"/>
					</linearGradient>
					<path style="fill:url(#SVGID_00000165927828640950881680000001028638386947547274_);" d="M755.9,954c0,0,67.5,155.2,72.1,236.6
						c4.5,81.4,22.1,134.3-72.1,150.7s-173.5-30.5-216.5-111.6c0,0-67.3-125-52.2-176.2C502.4,1002.2,755.9,954,755.9,954L755.9,954
						z"/>
					<path class="st6" d="M571.7,1171.3l5.4-2.4c6.8-3,9.7-11.1,6.3-17.8c-13.3-25.7-39.2-84.4-5.7-98.2
						c43.1-17.7,213.8-52.5,250.6-113.1c35.4-58.2,4-133.4-43.1-154.7c-3.2-1.4-6.9-0.3-8.5,2.8l-3.9,7.4
						c-2.7,5.1-10.2,4.3-11.8-1.2c-1.5-5.3-8.6-6.3-11.5-1.7c-11.3,18.1-41.9,47.5-123.6,62.6c-116.2,21.4-193,68.5-194.9,148.7
						c-0.1,5.1-5.5,7.9-9.9,5.3c-8.6-5.2-22.3-7.7-40.6,7.7c-31.9,26.8-18.9,96.4,51.1,153.7c3.3,2.7,3.3,7.9-0.3,10.2
						c-12.7,8.2-31.6,27.9,17.4,54.1c50.6,27.1,88.5,24.9,103,22.4c3.6-0.6,6-4.1,5.2-7.7l-15.5-70.6c-0.9-4,2.2-7.8,6.2-7.8
						L571.7,1171.3L571.7,1171.3z"/>
					
						<linearGradient id="SVGID_00000124843133552138269580000008503328491632549012_" gradientUnits="userSpaceOnUse" x1="722.2149" y1="1772.0337" x2="336.1049" y2="1476.6036" gradientTransform="matrix(1 0 0 -1 0 2800)">
						<stop  offset="0" style="stop-color:#FEBBBA"/>
						<stop  offset="1" style="stop-color:#FF928E"/>
					</linearGradient>
					<path style="fill:url(#SVGID_00000124843133552138269580000008503328491632549012_);" d="M574.6,1186.2
						c0,0-25.8-99.1-70.2-71.3s23.1,111.1,58.8,114.8L574.6,1186.2L574.6,1186.2z"/>
				</g>
				
					<linearGradient id="SVGID_00000010268663395375701970000017776574004476921737_" gradientUnits="userSpaceOnUse" x1="2140.0413" y1="2301.4187" x2="2055.3911" y2="1620.7786" gradientTransform="matrix(1 0 0 -1 0 2800)">
					<stop  offset="0" style="stop-color:#FEBBBA"/>
					<stop  offset="1" style="stop-color:#FF928E"/>
				</linearGradient>
				<path style="fill:url(#SVGID_00000010268663395375701970000017776574004476921737_);" d="M2014.5,1237.7c-1.9,0-3.8-0.6-5.3-1.9
					c-3.6-2.9-4.2-8.3-1.2-11.9c7.3-9,72.2-88.4,97.2-102.5c9.1-5.1,14.5-10.4,15.7-15.3c0.6-2.3,0.2-5-1.1-8l-76.3,15.3l-43.2,37.1
					c-3.5,3.1-8.9,2.7-11.9-0.9c-3.1-3.6-2.6-8.9,0.9-11.9l44.9-38.5c1.1-0.9,2.4-1.6,3.8-1.9l84.4-16.9c3.4-0.7,6.8,0.7,8.7,3.6
					c6.2,9.2,8.2,17.7,6.3,26.1c-2.3,9.9-10.1,18.5-23.8,26.2c-18.8,10.6-73.1,74.7-92.4,98.4
					C2019.5,1236.7,2017,1237.7,2014.5,1237.7L2014.5,1237.7z"/>
				
					<linearGradient id="SVGID_00000127019733085256980770000003583530480409913991_" gradientUnits="userSpaceOnUse" x1="178.451" y1="402.5122" x2="1038.561" y2="16.4821" gradientTransform="matrix(1 0 0 -1 0 2800)">
					<stop  offset="0" style="stop-color:#FEBBBA"/>
					<stop  offset="1" style="stop-color:#FF928E"/>
				</linearGradient>
				<path style="fill:url(#SVGID_00000127019733085256980770000003583530480409913991_);" d="M571.3,2646.6l298.5,3.7l-104.5-98.4
					c-26-24.4-65.6-28.4-95.6-9c-17.5,11.4-36.6,26.8-53.1,47.3c0,0-186.2-68.1-276.5-220.3c-28.1,41.8-61,98.6-89.5,169.3
					C331.6,2586.8,436.5,2624.1,571.3,2646.6L571.3,2646.6z"/>
				<g>
					<path class="st28" d="M603.5,2685.1c0.6,0,1.2,0,1.7,0l757.8-0.8c18.7,0,33.9-15.1,33.9-33.6c0-18.5-15.3-33.9-34-33.5
						l-757.8,0.8c-18.7,0-33.9,15.1-33.9,33.6C571.3,2669.6,585.6,2684.2,603.5,2685.1L603.5,2685.1z"/>
					<path class="st28" d="M2044.3,2004.3h-631.1c-46.6,0-88.9,26.6-108.8,68.2l-291.8,612.1h784.3c30,0,57-18.1,68-45.8
						l226.2-566.4C2104.2,2039.8,2079.8,2004.3,2044.3,2004.3L2044.3,2004.3z"/>
					
						<ellipse transform="matrix(0.313 -0.9498 0.9498 0.313 -1084.4358 3167.0513)" class="st1" cx="1646.9" cy="2333.1" rx="80.1" ry="49.7"/>
				</g>
			</g>
		</g>
	</g>
</g>
</svg>
